<?xml version="1.0" encoding="UTF-8"?>
<svg id="Layer_2" data-name="Layer 2" xmlns="http://www.w3.org/2000/svg" viewBox="0 0 144.59 34.34">
  <defs>
    <style>
      .cls-1 {
        fill: #fdfefe;
      }
    </style>
  </defs>
  <g id="Layer_1-2" data-name="Layer 1">
    <g>
      <path class="cls-1" d="m12.89,12.25v4.62h5.18c-.02,5.82-9.28,5.95-10.86.87-1.28-3.38-1.13-9.07,2.17-11.24,2.6-1.76,7.35-1.06,8.11,2.44h6.4C23.21,2.17,15.53-1.2,9.42.39L.13,11.63c-1.09,9.06,4.85,16.3,14.16,15.2l5.27-6.38h0v3.12h4.61v-11.33h-11.29Z"/>
      <path class="cls-1" d="m31.73,33.93c-1.3,0-2.72-.2-3.83-.63l1.38-4.54c1.88.62,3.42.65,4.04-1.48l-6.98-20.35h6.54l3.62,14.01h.2l3.67-14.01h6.58l-7.4,21.52c-1.1,3.51-4,5.61-7.82,5.48Z"/>
      <path class="cls-1" d="m82.69,26.56V.38h6.33v21.04h10.89v5.14h-17.22Z"/>
      <path class="cls-1" d="m112.35,26.94c-8.47.3-12.06-8.6-8.72-15.44,3.16-6.47,14.29-6.47,17.45,0,3.34,6.84-.26,15.73-8.73,15.44Zm.04-4.72c4.75.08,4.75-11,0-10.92-4.85-.13-4.86,11.05,0,10.92Z"/>
      <path class="cls-1" d="m134.63,34.34c-4.21.07-8.65-1.65-9.29-5.98l5.92-.33c.7,2.36,4.47,2.45,6.14,1.22.69-.51,1.03-1.39,1.03-2.65v-3.45h-.22c-1.45,3.52-6.5,3.89-9.49,2.15-2.92-1.75-3.91-4.84-3.92-8.57,0-3.83,1.05-7.1,3.98-8.97,3.18-2.06,8.05-1.13,9.4,2.54h.18v-3.36h6.23v19.71c.13,5.42-5.05,7.81-9.96,7.7Zm.19-12.59c4.92.16,4.87-10.32,0-10.19-4.85-.15-4.92,10.4,0,10.19Z"/>
      <path class="cls-1" d="m77.07,8.46c-1.77-1.97-5.38-2.29-7.71-1.05l-2.59,3.13h-.34s0,0,0,0c-.67-3.47-5.11-4.72-8.04-3.29l-2.73,3.3h-.34s0-.01,0-.01v-3.6h-5.94v19.64h6.25v-11.62c-.06-1.69,1.03-3.22,2.77-3.18,1.7,0,2.72,1.25,2.7,2.95,0,0,0,11.85,0,11.85h6.01v-11.72c-.01-1.76.96-3.09,2.76-3.08,1.73,0,2.74,1.22,2.71,3.02,0,0,0,11.79,0,11.79h6.25v-13.22c0-2.07-.58-3.7-1.74-4.89Z"/>
    </g>
  </g>
</svg>