<svg width="33" height="28" viewBox="0 0 33 28" fill="none" xmlns="http://www.w3.org/2000/svg">
<path d="M1.99805 6H27.998C28.5505 6 28.998 5.5525 28.998 5V1C28.998 0.4475 28.5505 0 27.998 0H1.99805C1.44555 0 0.998047 0.4475 0.998047 1V5C0.998047 5.5525 1.44555 6 1.99805 6ZM31.998 11H5.99805C5.44555 11 4.99805 11.4475 4.99805 12V16C4.99805 16.5525 5.44555 17 5.99805 17H31.998C32.5505 17 32.998 16.5525 32.998 16V12C32.998 11.4475 32.5505 11 31.998 11ZM27.998 22H1.99805C1.44555 22 0.998047 22.4475 0.998047 23V27C0.998047 27.5525 1.44555 28 1.99805 28H27.998C28.5505 28 28.998 27.5525 28.998 27V23C28.998 22.4475 28.5505 22 27.998 22Z" fill="#FCFCFC"/>
</svg>
