<svg width="11" height="32" viewBox="0 0 11 32" fill="none" xmlns="http://www.w3.org/2000/svg">
<path d="M5.64321 11.3548C8.21095 11.3548 10.2884 13.4323 10.2884 16C10.2884 18.5677 8.21095 20.6452 5.64321 20.6452C3.07547 20.6452 0.998047 18.5677 0.998047 16C0.998047 13.4323 3.07547 11.3548 5.64321 11.3548ZM0.998047 4.64516C0.998047 7.2129 3.07547 9.29032 5.64321 9.29032C8.21095 9.29032 10.2884 7.2129 10.2884 4.64516C10.2884 2.07742 8.21095 0 5.64321 0C3.07547 0 0.998047 2.07742 0.998047 4.64516ZM0.998047 27.3548C0.998047 29.9226 3.07547 32 5.64321 32C8.21095 32 10.2884 29.9226 10.2884 27.3548C10.2884 24.7871 8.21095 22.7097 5.64321 22.7097C3.07547 22.7097 0.998047 24.7871 0.998047 27.3548Z" fill="#FCFCFC"/>
</svg>
