<svg width="33" height="24" viewBox="0 0 33 24" fill="none" xmlns="http://www.w3.org/2000/svg">
<path d="M6.19805 4.00005H3.79805C3.13305 4.00005 2.59805 4.53505 2.59805 5.20005V10.4H1.39805C1.17805 10.4 0.998047 10.58 0.998047 10.8V13.2C0.998047 13.42 1.17805 13.6 1.39805 13.6H2.59805V18.8C2.59805 19.465 3.13305 20 3.79805 20H6.19805C6.86305 20 7.39805 19.465 7.39805 18.8V5.20005C7.39805 4.53505 6.86305 4.00005 6.19805 4.00005ZM32.598 10.4H31.398V5.20005C31.398 4.53505 30.863 4.00005 30.198 4.00005H27.798C27.133 4.00005 26.598 4.53505 26.598 5.20005V18.8C26.598 19.465 27.133 20 27.798 20H30.198C30.863 20 31.398 19.465 31.398 18.8V13.6H32.598C32.818 13.6 32.998 13.42 32.998 13.2V10.8C32.998 10.58 32.818 10.4 32.598 10.4ZM23.798 0.800049H21.398C20.733 0.800049 20.198 1.33505 20.198 2.00005V10.4H13.798V2.00005C13.798 1.33505 13.263 0.800049 12.598 0.800049H10.198C9.53305 0.800049 8.99805 1.33505 8.99805 2.00005V22C8.99805 22.665 9.53305 23.2 10.198 23.2H12.598C13.263 23.2 13.798 22.665 13.798 22V13.6H20.198V22C20.198 22.665 20.733 23.2 21.398 23.2H23.798C24.463 23.2 24.998 22.665 24.998 22V2.00005C24.998 1.33505 24.463 0.800049 23.798 0.800049Z" fill="#FCFCFC"/>
</svg>
