<svg width="33" height="32" viewBox="0 0 33 32" fill="none" xmlns="http://www.w3.org/2000/svg">
<path d="M32.998 15.9697C33.0143 24.7852 25.8251 31.9937 17.0096 31.9999C13.2022 32.0026 9.70494 30.6754 6.95662 28.4573C6.24198 27.8805 6.18856 26.8095 6.83798 26.16L7.56488 25.4331C8.1203 24.8777 9.00701 24.8169 9.62236 25.3051C11.6472 26.9119 14.2097 27.8709 16.998 27.8709C23.5596 27.8709 28.869 22.5606 28.869 16C28.869 9.43838 23.5586 4.12903 16.998 4.12903C13.8487 4.12903 10.9884 5.35283 8.86462 7.35045L12.1391 10.6249C12.7894 11.2752 12.3288 12.3871 11.4092 12.3871H2.0303C1.46018 12.3871 0.998047 11.925 0.998047 11.3548V1.97593C0.998047 1.05632 2.10992 0.595741 2.76024 1.246L5.94553 4.43129C8.81798 1.68619 12.7111 0 16.998 0C25.8245 0 32.9817 7.14709 32.998 15.9697ZM21.3263 21.0526L21.96 20.2377C22.4851 19.5627 22.3634 18.5899 21.6884 18.0649L19.0625 16.0225V9.29031C19.0625 8.43515 18.3693 7.74193 17.5142 7.74193H16.4819C15.6267 7.74193 14.9335 8.43515 14.9335 9.29031V18.042L19.1535 21.3242C19.8285 21.8491 20.8013 21.7276 21.3263 21.0526Z" fill="#FCFCFC"/>
</svg>
