<svg width="33" height="28" viewBox="0 0 33 28" fill="none" xmlns="http://www.w3.org/2000/svg">
<path d="M15.8643 7.72731L5.62233 16.5661V26.1058C5.62233 26.3528 5.71597 26.5897 5.88266 26.7643C6.04935 26.939 6.27542 27.0371 6.51115 27.0371L12.7362 27.0202C12.9712 27.019 13.1961 26.9203 13.3618 26.7458C13.5276 26.5713 13.6206 26.3351 13.6206 26.0889V20.5178C13.6206 20.2708 13.7142 20.034 13.8809 19.8593C14.0476 19.6846 14.2737 19.5865 14.5094 19.5865H18.0647C18.3004 19.5865 18.5265 19.6846 18.6932 19.8593C18.8599 20.034 18.9535 20.2708 18.9535 20.5178V26.0848C18.9532 26.2074 18.9759 26.3288 19.0204 26.4421C19.0649 26.5554 19.1303 26.6584 19.2129 26.7452C19.2954 26.832 19.3935 26.9009 19.5016 26.9479C19.6096 26.9949 19.7254 27.019 19.8423 27.019L26.0652 27.0371C26.3009 27.0371 26.527 26.939 26.6937 26.7643C26.8604 26.5897 26.954 26.3528 26.954 26.1058V16.5597L16.7143 7.72731C16.5939 7.62564 16.4439 7.57019 16.2893 7.57019C16.1347 7.57019 15.9847 7.62564 15.8643 7.72731ZM32.0425 13.7349L27.3984 9.72383V1.6615C27.3984 1.47625 27.3282 1.29859 27.2032 1.1676C27.0782 1.0366 26.9086 0.963013 26.7318 0.963013H23.6209C23.4441 0.963013 23.2746 1.0366 23.1496 1.1676C23.0246 1.29859 22.9543 1.47625 22.9543 1.6615V5.88795L17.9808 1.60039C17.5035 1.18885 16.9046 0.963835 16.2865 0.963835C15.6684 0.963835 15.0695 1.18885 14.5922 1.60039L0.530499 13.7349C0.462998 13.7934 0.407151 13.8652 0.366149 13.9463C0.325148 14.0274 0.299796 14.1161 0.291542 14.2075C0.283288 14.2988 0.292293 14.391 0.318044 14.4787C0.343794 14.5664 0.385785 14.6479 0.441617 14.7186L1.85817 16.5231C1.91385 16.594 1.98234 16.6527 2.05971 16.6959C2.13709 16.7391 2.22183 16.7658 2.30908 16.7747C2.39633 16.7835 2.48439 16.7742 2.56821 16.7473C2.65203 16.7204 2.72996 16.6764 2.79755 16.6179L15.8643 5.3408C15.9847 5.23913 16.1347 5.18368 16.2893 5.18368C16.4439 5.18368 16.5939 5.23913 16.7143 5.3408L29.7816 16.6179C29.8491 16.6764 29.9269 16.7204 30.0106 16.7474C30.0943 16.7744 30.1822 16.7838 30.2694 16.7752C30.3566 16.7665 30.4413 16.74 30.5187 16.697C30.5961 16.654 30.6646 16.5955 30.7204 16.5248L32.137 14.7204C32.1927 14.6493 32.2345 14.5673 32.26 14.4792C32.2854 14.3911 32.294 14.2986 32.2852 14.2071C32.2765 14.1155 32.2505 14.0266 32.2088 13.9456C32.1672 13.8646 32.1107 13.793 32.0425 13.7349Z" fill="#FCFCFC"/>
</svg>
