<svg width="29" height="32" viewBox="0 0 29 32" fill="none" xmlns="http://www.w3.org/2000/svg">
<path d="M14.998 16C19.4168 16 22.998 12.4187 22.998 8C22.998 3.58125 19.4168 0 14.998 0C10.5793 0 6.99805 3.58125 6.99805 8C6.99805 12.4187 10.5793 16 14.998 16ZM20.598 18H19.5543C18.1668 18.6375 16.623 19 14.998 19C13.373 19 11.8355 18.6375 10.4418 18H9.39805C4.76055 18 0.998047 21.7625 0.998047 26.4V29C0.998047 30.6562 2.3418 32 3.99805 32H25.9981C27.6543 32 28.9981 30.6562 28.9981 29V26.4C28.9981 21.7625 25.2355 18 20.598 18Z" fill="#FCFCFC"/>
</svg>
